<svg width="119" height="116" viewBox="0 0 119 116" fill="none" xmlns="http://www.w3.org/2000/svg">
<rect width="119" height="116" rx="6" fill="#D9D9D9"/>
<path d="M29 33H81C84.3137 33 87 35.6863 87 39V40C87 43.3137 84.3137 46 81 46H29L31 43V40V36.5L29 33Z" fill="#390000"/>
<path d="M96 66H44C40.6863 66 38 63.3137 38 60V59C38 55.6863 40.6863 53 44 53L96 53L94 56V59V62.5L96 66Z" fill="black"/>
<path d="M30 73L82 73C85.3137 73 88 75.6863 88 79V80C88 83.3137 85.3137 86 82 86L30 86L32 83L32 80V76.5L30 73Z" fill="#5A6F7C"/>
</svg>
